<?xml version="1.0" encoding="UTF-8"?>
<!DOCTYPE svg PUBLIC "-//W3C//DTD SVG 1.1//EN" "http://www.w3.org/Graphics/SVG/1.1/DTD/svg11.dtd">
<svg version="1.1" xmlns="http://www.w3.org/2000/svg" xmlns:xlink="http://www.w3.org/1999/xlink" x="0" y="0" width="800" height="266" viewBox="0, 0, 800, 266">
  <g id="Layer_1">
    <g display="none">
      <path d="M399.63,206.27 C404.09,219 415.09,231.09 430.01,228.72 C437.9,227.46 444.1,222.34 441.51,213.66 C440.49,210.25 437.66,207.29 435.21,204.55 Q434.86,204.15 435.27,203.8 Q439.88,199.97 442.93,194.78 Q443.27,194.2 443.51,194.82 C449.24,209.31 460.3,223.39 477.99,220.07 C488.87,218.03 494.92,209.45 490.53,198.55 C486.27,187.99 470.45,176.46 461,170.44 Q459.88,169.73 461.14,169.3 Q469.71,166.42 478.09,161.61 Q506.44,145.35 535.14,129.7 C556.65,117.96 587.22,110.14 611.19,115.3 C633.12,120.02 653.45,132.9 672.89,143.72 C704.46,161.3 738.71,168.6 774.75,168.78 Q776.15,168.79 777.42,168.16 Q777.89,167.93 777.95,167.42 Q778.18,165.61 777.04,164.45 Q766.16,153.47 763.2,150.3 C735.05,120.08 710.75,93.7 677.79,71.99 C635.8,44.33 584.19,37.36 538.53,60.45 C513.31,73.2 493.82,95.22 474.03,114.77 C466.77,121.94 454.74,131.57 444.55,133.46 C428.53,136.44 420.72,126.96 414.75,114.19 C406.76,97.1 398.72,81.16 385.07,67.73 Q347.23,30.53 293.49,32.26 Q273.49,32.9 256.53,43.1 C237.26,54.68 226.46,76.22 215.37,94.81 C208.68,106.02 202.19,114.68 189.01,117.78 C170.7,122.07 154.71,116.13 142.76,101.76 Q142.45,101.4 142.41,100.92 C140.98,84.92 132.46,67.68 117.44,60.33 C110.59,56.98 101.46,57.28 96.2,63.23 C89.77,70.5 92.13,83 96.64,90.82 C96.7,90.923 96.715,91.046 96.68,91.158 C96.646,91.271 96.566,91.362 96.46,91.41 L95.7,91.77 C95.349,91.935 94.931,91.788 94.76,91.44 C91.36,84.38 88.51,78.32 81.47,73.28 C72.41,66.8 58.6,70.37 56,81.84 Q51.42,102 70.69,109.43 Q71.19,109.62 70.95,110.1 C66.17,119.33 67.73,126.35 69.24,136.01 C70.77,145.77 59.51,149.9 55.3,156.28 C50.85,163.04 55.78,169.05 62.17,170.82 Q80.74,175.99 99.28,172.87 C111.11,170.88 124.99,164.57 137.24,159.98 C140.55,158.74 142.62,158.03 145.88,160.07 Q150.86,163.19 156.24,165.92 C156.503,166.059 156.648,166.345 156.6,166.63 C155.57,173.54 143.61,180.08 138.19,183.99 C124.45,193.9 114.89,202.98 122.55,220.69 C126.31,229.4 134.89,236.57 144.91,232.84 C154.83,229.14 163.88,220.74 164.74,209.62 Q164.78,209.12 165.27,209.19 C183,211.77 191.76,192.59 208.75,190.75 C219.85,189.55 230.78,189.43 241.04,184.59 C263.39,174.06 267.95,152.31 276.76,131.79 C281.69,120.31 292.38,108.61 305.69,107.62 C321.87,106.42 338.44,123.08 348.25,134.36 C349.95,136.32 350.37,137.46 350.12,140 C348.78,153.49 349,168.89 353.11,181.39 C357.36,194.32 366.2,207.19 379.97,210.28 Q390.67,212.67 398.94,206.07 C399.052,205.981 399.2,205.952 399.337,205.991 C399.474,206.031 399.583,206.135 399.63,206.27" fill-opacity="0" stroke="#808080" stroke-width="2"/>
      <path d="M426.86,142.24 Q424.78,137.91 427.68,141.73 Q439.12,156.8 455.98,167 C457.37,167.84 458.12,167.5 459.48,166.95 Q467.24,163.77 472.81,160.47 Q499.98,144.38 527.19,128.38 C551.44,114.13 578.2,104.88 606.82,107.43 C618.91,108.5 630.01,113.94 638.97,116.05 C648.76,118.36 660.88,112.93 656.56,100.99 Q656.33,100.36 657,100.38 C668.47,100.69 684.93,89.12 669.7,78.51 C640.05,57.83 601.21,50.23 565.96,58.24 C528.09,66.84 502.41,95.04 475.11,120.09 C467.9,126.7 456.87,134.48 445.91,136.63 C430.49,139.65 422.23,131.24 414.65,119.33 C399.36,95.32 381.64,73.79 359.18,59.07 C336.13,43.96 304.73,37.83 277.35,43.76 C248.83,49.93 235.91,74.95 221.44,97.2 C213.24,109.8 204.64,119.52 189.75,122.36 C168.97,126.33 153.4,117.09 140.05,102 C139.837,101.767 139.71,101.467 139.69,101.15 C139.21,95.08 137.2,90.83 131.9,87.44 Q122.39,81.37 112.58,80.92 C107.51,80.68 99.13,81.45 97.01,86.63 Q96.82,87.11 97.04,87.57 L99.05,91.8 Q99.3,92.31 98.73,92.38 C80.52,94.68 68.14,112.75 73.35,130.67 C78.98,150 64.56,148.77 58.66,161.55 Q58.46,161.99 58.58,162.46 C59.94,167.85 76,169.24 80.51,169.68 Q83.71,169.99 86.25,168.97 C90.82,167.15 97.42,162.44 98.6,157.34 Q98.73,156.75 99.34,156.75 L99.69,156.75 Q100.31,156.75 100.1,157.34 C97.94,163.26 93.84,166.78 88.4,169.7 C88.262,169.773 88.192,169.931 88.23,170.082 C88.268,170.234 88.404,170.34 88.56,170.34 C106.98,170.32 124.77,161.49 142.5,156.94 C150.13,154.98 166.52,162.89 172.95,167.06 C173.221,167.24 173.567,167.262 173.86,167.12 C186.78,160.74 199.89,159.9 211.66,168.54 C211.819,168.67 211.862,168.895 211.76,169.074 C211.658,169.252 211.443,169.331 211.25,169.26 C202.96,165.82 197.61,163.32 188.24,165.25 C177.87,167.38 164.03,176.06 159.43,186.44 C155.74,194.74 161.16,204.95 170.96,203.37 C176.49,202.48 185.91,195.04 191.1,191.61 C198.92,186.45 205.66,185.23 214.82,184.43 C231.89,182.93 244.25,180.68 255.08,167.57 C262.9,158.11 266.02,149.75 270.89,137.13 C274.61,127.5 278.15,120.48 284.91,114.12 C319.34,81.67 353.95,137.17 370.39,159.88 Q375.31,166.68 385.73,178.27 C397.08,190.91 409.49,199.87 427.05,199.35 C427.58,199.33 427.94,198.91 428.6,198.9 Q439.11,198.66 444.15,189.58 Q444.49,188.96 444.7,189.63 Q448.69,202.42 458.34,209.91 C464.39,214.59 475.16,216.81 481.92,212.34 C498.55,201.36 459.65,172.11 451.98,166.46 C443.54,160.24 437.68,154.95 431.23,148.02 Q427.92,144.45 426.86,142.24" fill-opacity="0" stroke="#808080" stroke-width="2"/>
      <path d="M89.04,86.06 C78.81,84.7 68.32,89.22 64.09,98.71 C62.66,101.93 69.12,106.96 71.16,108.28 Q71.65,108.59 71.95,108.1 Q78.84,97 91.13,92.66 Q91.59,92.5 92.08,92.5 L92.78,92.5 Q93.65,92.5 93.18,91.76 L89.94,86.64 C89.737,86.323 89.408,86.111 89.04,86.06" fill-opacity="0" stroke="#808080" stroke-width="2"/>
      <path d="M397.57,204.83 C398.9,204.33 398.9,202.92 399.42,201.53 Q399.62,201 399.05,201 L398.52,201 C398.247,201 397.985,200.916 397.77,200.76 Q387.76,193.67 380.25,182.25 Q366.21,160.88 357.47,145.29 Q356.16,142.95 352.27,139.26 Q351.76,138.78 351.81,139.48 C353.04,156.87 352.54,173.17 361.91,188.85 Q366.98,197.33 372.66,201.23 C379.42,205.86 389.59,207.84 397.57,204.83" fill-opacity="0" stroke="#808080" stroke-width="2"/>
      <path d="M166.39,170.75 L160.02,167.64 Q159.52,167.4 159.35,167.94 Q157.52,173.82 151.79,178.06 Q148.21,180.71 134.82,191.84 C124.62,200.31 122,211.63 131.52,222.23 C141.47,233.31 154.68,215.03 158.13,206.51 Q158.31,206.08 158.04,205.7 Q154.8,201.07 154.07,199.66 C148.4,188.64 158.01,177.24 166.44,171.37 C166.545,171.297 166.603,171.173 166.593,171.046 C166.583,170.918 166.505,170.805 166.39,170.75" fill-opacity="0" stroke="#808080" stroke-width="2"/>
      <path d="M407.43,206.04 L402.18,203.1 C402.034,203.023 401.854,203.046 401.733,203.159 C401.611,203.271 401.574,203.448 401.64,203.6 C406.45,213.72 417.94,226.42 430.51,222.68 C440.39,219.74 439.25,212.66 433.49,205.96 C433.105,205.515 432.471,205.376 431.93,205.62 C425.36,208.57 416.02,209.07 409.65,205.92 Q409.26,205.72 408.86,205.9 Q408.62,206.01 408.38,206.1 Q407.89,206.3 407.43,206.04" fill-opacity="0" stroke="#808080" stroke-width="2"/>
      <path d="M127.22,134.75 C133.2,123.21 119.9,106.86 107.98,106.74 C88.88,106.54 78.63,129.8 92.96,142.85 C104.66,153.51 120.71,147.35 127.22,134.75" fill-opacity="0" stroke="#808080" stroke-width="2"/>
      <path d="M104.98,136.78 C95.18,131.44 96.86,117.4 106.82,113.02 C106.988,112.943 107.083,112.763 107.052,112.58 C107.022,112.398 106.874,112.259 106.69,112.24 C97.22,111.54 90.53,121.52 89.47,129.73 C88.57,136.76 96.1,143.04 101.95,144.61 Q106.84,145.93 112.32,143.76 C117.08,141.88 128.92,132.83 125.33,126.64 Q125.04,126.14 124.93,126.71 C123.02,136.64 113.87,141.63 104.98,136.78" fill-opacity="0" stroke="#808080" stroke-width="2"/>
    </g>
    <path d="M399.63,206.27 C399.583,206.135 399.474,206.031 399.337,205.991 C399.2,205.952 399.052,205.981 398.94,206.07 Q390.67,212.67 379.97,210.28 C366.2,207.19 357.36,194.32 353.11,181.39 C349,168.89 348.78,153.49 350.12,140 C350.37,137.46 349.95,136.32 348.25,134.36 C338.44,123.08 321.87,106.42 305.69,107.62 C292.38,108.61 281.69,120.31 276.76,131.79 C267.95,152.31 263.39,174.06 241.04,184.59 C230.78,189.43 219.85,189.55 208.75,190.75 C191.76,192.59 183,211.77 165.27,209.19 Q164.78,209.12 164.74,209.62 C163.88,220.74 154.83,229.14 144.91,232.84 C134.89,236.57 126.31,229.4 122.55,220.69 C114.89,202.98 124.45,193.9 138.19,183.99 C143.61,180.08 155.57,173.54 156.6,166.63 C156.648,166.345 156.503,166.059 156.24,165.92 Q150.86,163.19 145.88,160.07 C142.62,158.03 140.55,158.74 137.24,159.98 C124.99,164.57 111.11,170.88 99.28,172.87 Q80.74,175.99 62.17,170.82 C55.78,169.05 50.85,163.04 55.3,156.28 C59.51,149.9 70.77,145.77 69.24,136.01 C67.73,126.35 66.17,119.33 70.95,110.1 Q71.19,109.62 70.69,109.43 Q51.42,102 56,81.84 C58.6,70.37 72.41,66.8 81.47,73.28 C88.51,78.32 91.36,84.38 94.76,91.44 C94.931,91.788 95.349,91.935 95.7,91.77 L96.46,91.41 C96.566,91.362 96.646,91.271 96.68,91.158 C96.715,91.046 96.7,90.923 96.64,90.82 C92.13,83 89.77,70.5 96.2,63.23 C101.46,57.28 110.59,56.98 117.44,60.33 C132.46,67.68 140.98,84.92 142.41,100.92 Q142.45,101.4 142.76,101.76 C154.71,116.13 170.7,122.07 189.01,117.78 C202.19,114.68 208.68,106.02 215.37,94.81 C226.46,76.22 237.26,54.68 256.53,43.1 Q273.49,32.9 293.49,32.26 Q347.23,30.53 385.07,67.73 C398.72,81.16 406.76,97.1 414.75,114.19 C420.72,126.96 428.53,136.44 444.55,133.46 C454.74,131.57 466.77,121.94 474.03,114.77 C493.82,95.22 513.31,73.2 538.53,60.45 C584.19,37.36 635.8,44.33 677.79,71.99 C710.75,93.7 735.05,120.08 763.2,150.3 Q766.16,153.47 777.04,164.45 Q778.18,165.61 777.95,167.42 Q777.89,167.93 777.42,168.16 Q776.15,168.79 774.75,168.78 C738.71,168.6 704.46,161.3 672.89,143.72 C653.45,132.9 633.12,120.02 611.19,115.3 C587.22,110.14 556.65,117.96 535.14,129.7 Q506.44,145.35 478.09,161.61 Q469.71,166.42 461.14,169.3 Q459.88,169.73 461,170.44 C470.45,176.46 486.27,187.99 490.53,198.55 C494.92,209.45 488.87,218.03 477.99,220.07 C460.3,223.39 449.24,209.31 443.51,194.82 Q443.27,194.2 442.93,194.78 Q439.88,199.97 435.27,203.8 Q434.86,204.15 435.21,204.55 C437.66,207.29 440.49,210.25 441.51,213.66 C444.1,222.34 437.9,227.46 430.01,228.72 C415.09,231.09 404.09,219 399.63,206.27 z M426.86,142.24 Q424.78,137.91 427.68,141.73 Q439.12,156.8 455.98,167 C457.37,167.84 458.12,167.5 459.48,166.95 Q467.24,163.77 472.81,160.47 Q499.98,144.38 527.19,128.38 C551.44,114.13 578.2,104.88 606.82,107.43 C618.91,108.5 630.01,113.94 638.97,116.05 C648.76,118.36 660.88,112.93 656.56,100.99 Q656.33,100.36 657,100.38 C668.47,100.69 684.93,89.12 669.7,78.51 C640.05,57.83 601.21,50.23 565.96,58.24 C528.09,66.84 502.41,95.04 475.11,120.09 C467.9,126.7 456.87,134.48 445.91,136.63 C430.49,139.65 422.23,131.24 414.65,119.33 C399.36,95.32 381.64,73.79 359.18,59.07 C336.13,43.96 304.73,37.83 277.35,43.76 C248.83,49.93 235.91,74.95 221.44,97.2 C213.24,109.8 204.64,119.52 189.75,122.36 C168.97,126.33 153.4,117.09 140.05,102 C139.837,101.767 139.71,101.467 139.69,101.15 C139.21,95.08 137.2,90.83 131.9,87.44 Q122.39,81.37 112.58,80.92 C107.51,80.68 99.13,81.45 97.01,86.63 Q96.82,87.11 97.04,87.57 L99.05,91.8 Q99.3,92.31 98.73,92.38 C80.52,94.68 68.14,112.75 73.35,130.67 C78.98,150 64.56,148.77 58.66,161.55 Q58.46,161.99 58.58,162.46 C59.94,167.85 76,169.24 80.51,169.68 Q83.71,169.99 86.25,168.97 C90.82,167.15 97.42,162.44 98.6,157.34 Q98.73,156.75 99.34,156.75 L99.69,156.75 Q100.31,156.75 100.1,157.34 C97.94,163.26 93.84,166.78 88.4,169.7 C88.262,169.773 88.192,169.931 88.23,170.082 C88.268,170.234 88.404,170.34 88.56,170.34 C106.98,170.32 124.77,161.49 142.5,156.94 C150.13,154.98 166.52,162.89 172.95,167.06 C173.221,167.24 173.567,167.262 173.86,167.12 C186.78,160.74 199.89,159.9 211.66,168.54 C211.819,168.67 211.861,168.895 211.76,169.074 C211.658,169.252 211.443,169.331 211.25,169.26 C202.96,165.82 197.61,163.32 188.24,165.25 C177.87,167.38 164.03,176.06 159.43,186.44 C155.74,194.74 161.16,204.95 170.96,203.37 C176.49,202.48 185.91,195.04 191.1,191.61 C198.92,186.45 205.66,185.23 214.82,184.43 C231.89,182.93 244.25,180.68 255.08,167.57 C262.9,158.11 266.02,149.75 270.89,137.13 C274.61,127.5 278.15,120.48 284.91,114.12 C319.34,81.67 353.95,137.17 370.39,159.88 Q375.31,166.68 385.73,178.27 C397.08,190.91 409.49,199.87 427.05,199.35 C427.58,199.33 427.94,198.91 428.6,198.9 Q439.11,198.66 444.15,189.58 Q444.49,188.96 444.7,189.63 Q448.69,202.42 458.34,209.91 C464.39,214.59 475.16,216.81 481.92,212.34 C498.55,201.36 459.65,172.11 451.98,166.46 C443.54,160.24 437.68,154.95 431.23,148.02 Q427.92,144.45 426.86,142.24 z M89.04,86.06 C78.81,84.7 68.32,89.22 64.09,98.71 C62.66,101.93 69.12,106.96 71.16,108.28 Q71.65,108.59 71.95,108.1 Q78.84,97 91.13,92.66 Q91.59,92.5 92.08,92.5 L92.78,92.5 Q93.65,92.5 93.18,91.76 L89.94,86.64 C89.737,86.323 89.408,86.111 89.04,86.06 z M397.57,204.83 C398.9,204.33 398.9,202.92 399.42,201.53 Q399.62,201 399.05,201 L398.52,201 C398.247,201 397.985,200.916 397.77,200.76 Q387.76,193.67 380.25,182.25 Q366.21,160.88 357.47,145.29 Q356.16,142.95 352.27,139.26 Q351.76,138.78 351.81,139.48 C353.04,156.87 352.54,173.17 361.91,188.85 Q366.98,197.33 372.66,201.23 C379.42,205.86 389.59,207.84 397.57,204.83 z M166.39,170.75 L160.02,167.64 Q159.52,167.4 159.35,167.94 Q157.52,173.82 151.79,178.06 Q148.21,180.71 134.82,191.84 C124.62,200.31 122,211.63 131.52,222.23 C141.47,233.31 154.68,215.03 158.13,206.51 Q158.31,206.08 158.04,205.7 Q154.8,201.07 154.07,199.66 C148.4,188.64 158.01,177.24 166.44,171.37 C166.545,171.297 166.603,171.173 166.593,171.046 C166.583,170.918 166.505,170.805 166.39,170.75 z M407.43,206.04 L402.18,203.1 C402.034,203.023 401.854,203.046 401.733,203.159 C401.611,203.271 401.574,203.448 401.64,203.6 C406.45,213.72 417.94,226.42 430.51,222.68 C440.39,219.74 439.25,212.66 433.49,205.96 C433.105,205.515 432.471,205.376 431.93,205.62 C425.36,208.57 416.02,209.07 409.65,205.92 Q409.26,205.72 408.86,205.9 Q408.62,206.01 408.38,206.1 Q407.89,206.3 407.43,206.04 z" fill="#000000"/>
    <path d="M426.86,142.24 Q427.92,144.45 431.23,148.02 C437.68,154.95 443.54,160.24 451.98,166.46 C459.65,172.11 498.55,201.36 481.92,212.34 C475.16,216.81 464.39,214.59 458.34,209.91 Q448.69,202.42 444.7,189.63 Q444.49,188.96 444.15,189.58 Q439.11,198.66 428.6,198.9 C427.94,198.91 427.58,199.33 427.05,199.35 C409.49,199.87 397.08,190.91 385.73,178.27 Q375.31,166.68 370.39,159.88 C353.95,137.17 319.34,81.67 284.91,114.12 C278.15,120.48 274.61,127.5 270.89,137.13 C266.02,149.75 262.9,158.11 255.08,167.57 C244.25,180.68 231.89,182.93 214.82,184.43 C205.66,185.23 198.92,186.45 191.1,191.61 C185.91,195.04 176.49,202.48 170.96,203.37 C161.16,204.95 155.74,194.74 159.43,186.44 C164.03,176.06 177.87,167.38 188.24,165.25 C197.61,163.32 202.96,165.82 211.25,169.26 C211.443,169.331 211.658,169.252 211.76,169.074 C211.862,168.895 211.819,168.67 211.66,168.54 C199.89,159.9 186.78,160.74 173.86,167.12 C173.567,167.262 173.221,167.24 172.95,167.06 C166.52,162.89 150.13,154.98 142.5,156.94 C124.77,161.49 106.98,170.32 88.56,170.34 C88.404,170.34 88.268,170.234 88.23,170.082 C88.192,169.931 88.262,169.773 88.4,169.7 C93.84,166.78 97.94,163.26 100.1,157.34 Q100.31,156.75 99.69,156.75 L99.34,156.75 Q98.73,156.75 98.6,157.34 C97.42,162.44 90.82,167.15 86.25,168.97 Q83.71,169.99 80.51,169.68 C76,169.24 59.94,167.85 58.58,162.46 Q58.46,161.99 58.66,161.55 C64.56,148.77 78.98,150 73.35,130.67 C68.14,112.75 80.52,94.68 98.73,92.38 Q99.3,92.31 99.05,91.8 L97.04,87.57 Q96.82,87.11 97.01,86.63 C99.13,81.45 107.51,80.68 112.58,80.92 Q122.39,81.37 131.9,87.44 C137.2,90.83 139.21,95.08 139.69,101.15 C139.71,101.467 139.837,101.767 140.05,102 C153.4,117.09 168.97,126.33 189.75,122.36 C204.64,119.52 213.24,109.8 221.44,97.2 C235.91,74.95 248.83,49.93 277.35,43.76 C304.73,37.83 336.13,43.96 359.18,59.07 C381.64,73.79 399.36,95.32 414.65,119.33 C422.23,131.24 430.49,139.65 445.91,136.63 C456.87,134.48 467.9,126.7 475.11,120.09 C502.41,95.04 528.09,66.84 565.96,58.24 C601.21,50.23 640.05,57.83 669.7,78.51 C684.93,89.12 668.47,100.69 657,100.38 Q656.33,100.36 656.56,100.99 C660.88,112.93 648.76,118.36 638.97,116.05 C630.01,113.94 618.91,108.5 606.82,107.43 C578.2,104.88 551.44,114.13 527.19,128.38 Q499.98,144.38 472.81,160.47 Q467.24,163.77 459.48,166.95 C458.12,167.5 457.37,167.84 455.98,167 Q439.12,156.8 427.68,141.73 Q424.78,137.91 426.86,142.24 z M127.22,134.75 C133.2,123.21 119.9,106.86 107.98,106.74 C88.88,106.54 78.63,129.8 92.96,142.85 C104.66,153.51 120.71,147.35 127.22,134.75 z" fill="#FFFFFF"/>
    <path d="M89.94,86.64 L93.18,91.76 Q93.65,92.5 92.78,92.5 L92.08,92.5 Q91.59,92.5 91.13,92.66 Q78.84,97 71.95,108.1 Q71.65,108.59 71.16,108.28 C69.12,106.96 62.66,101.93 64.09,98.71 C68.32,89.22 78.81,84.7 89.04,86.06 C89.408,86.111 89.737,86.323 89.94,86.64 z" fill="#FFFFFF"/>
    <path d="M107.98,106.74 C119.9,106.86 133.2,123.21 127.22,134.75 C120.71,147.35 104.66,153.51 92.96,142.85 C78.63,129.8 88.88,106.54 107.98,106.74 z M104.98,136.78 C95.18,131.44 96.86,117.4 106.82,113.02 C106.988,112.943 107.083,112.763 107.052,112.58 C107.022,112.398 106.874,112.259 106.69,112.24 C97.22,111.54 90.53,121.52 89.47,129.73 C88.57,136.76 96.1,143.04 101.95,144.61 Q106.84,145.93 112.32,143.76 C117.08,141.88 128.92,132.83 125.33,126.64 Q125.04,126.14 124.93,126.71 C123.02,136.64 113.87,141.63 104.98,136.78 z" fill="#000000"/>
    <path d="M104.98,136.78 C113.87,141.63 123.02,136.64 124.93,126.71 Q125.04,126.14 125.33,126.64 C128.92,132.83 117.08,141.88 112.32,143.76 Q106.84,145.93 101.95,144.61 C96.1,143.04 88.57,136.76 89.47,129.73 C90.53,121.52 97.22,111.54 106.69,112.24 C106.874,112.259 107.022,112.398 107.052,112.58 C107.083,112.763 106.988,112.943 106.82,113.02 C96.86,117.4 95.18,131.44 104.98,136.78 z" fill="#FFFFFF"/>
    <path d="M399.42,201.53 C398.9,202.92 398.9,204.33 397.57,204.83 C389.59,207.84 379.42,205.86 372.66,201.23 Q366.98,197.33 361.91,188.85 C352.54,173.17 353.04,156.87 351.81,139.48 Q351.76,138.78 352.27,139.26 Q356.16,142.95 357.47,145.29 Q366.21,160.88 380.25,182.25 Q387.76,193.67 397.77,200.76 C397.985,200.916 398.247,201 398.52,201 L399.05,201 Q399.62,201 399.42,201.53 z" fill="#FFFFFF"/>
    <path d="M166.39,170.75 C166.505,170.805 166.583,170.918 166.593,171.046 C166.603,171.173 166.545,171.297 166.44,171.37 C158.01,177.24 148.4,188.64 154.07,199.66 Q154.8,201.07 158.04,205.7 Q158.31,206.08 158.13,206.51 C154.68,215.03 141.47,233.31 131.52,222.23 C122,211.63 124.62,200.31 134.82,191.84 Q148.21,180.71 151.79,178.06 Q157.52,173.82 159.35,167.94 Q159.52,167.4 160.02,167.64 L166.39,170.75 z" fill="#FFFFFF"/>
    <path d="M408.38,206.1 Q408.62,206.01 408.86,205.9 Q409.26,205.72 409.65,205.92 C416.02,209.07 425.36,208.57 431.93,205.62 C432.471,205.376 433.105,205.515 433.49,205.96 C439.25,212.66 440.39,219.74 430.51,222.68 C417.94,226.42 406.45,213.72 401.64,203.6 C401.574,203.448 401.611,203.271 401.733,203.159 C401.854,203.046 402.034,203.023 402.18,203.1 L407.43,206.04 Q407.89,206.3 408.38,206.1 z" fill="#FFFFFF"/>
  </g>
</svg>
